{"title":"Black.Death.2010.DVDRip.H264.FEEL-FREE","uid":5739029,"size":1328068641,"categoryP":"video","categoryS":"movies","magnet":"?xt=urn:btih:7b1e40bacd2d4be3885cc9a8a486b291765842a7&amp;dn=Black.Death.2010.DVDRip.H264.FEEL-FREE&amp;tr=udp%3A%2F%2Ftracker.openbittorrent.com%3A80&amp;tr=udp%3A%2F%2Fopen.demonii.com%3A1337&amp;tr=udp%3A%2F%2Ftracker.coppersurfer.tk%3A6969&amp;tr=udp%3A%2F%2Fexodus.desync.com%3A6969","seeders":1,"leechers":0,"uploader":"hiest","files":-1,"time":1280931721,"description":"Genre:Drama | Horror | Mystery \nLanguage:English\nIMDb:http://www.imdb.com/title/tt1181791/\nSource:DVD.Thanks\n...........................................\nGeneral\nComplete name : Black.Death.2010.DVDRip.H264.FEEL-FREE\nFormat : MPEG-4\nFormat profile : Base Media\nCodec ID : isom\nFile size : 1.24 GiB\nDuration : 1h 37mn\nOverall bit rate : 1 810 Kbps\n............................................\nVideo\nID : 1\nFormat : AVC\nFormat/Info : Advanced Video Codec\nFormat profile : &lt;a class=&quot;__cf_email__&quot; href=&quot;/cdn-cgi/l/email-protection&quot; data-cfemail=&quot;692b081a0c0500070c29255c4758&quot;&gt;[email&amp;#160;protected]&lt;/a&gt;&lt;script cf-hash='f9e31' type=&quot;text/javascript&quot;&gt;\n/* &lt;![CDATA[ */!function(){try{var t=&quot;currentScript&quot;in document?document.currentScript:function(){for(var t=document.getElementsByTagName(&quot;script&quot;),e=t.length;e--;)if(t[e].getAttribute(&quot;cf-hash&quot;))return t[e]}();if(t&amp;&amp;t.previousSibling){var e,r,n,i,c=t.previousSibling,a=c.getAttribute(&quot;data-cfemail&quot;);if(a){for(e=&quot;&quot;,r=parseInt(a.substr(0,2),16),n=2;a.length-n;n+=2)i=parseInt(a.substr(n,2),16)^r,e+=String.fromCharCode(i);e=document.createTextNode(e),c.parentNode.replaceChild(e,c)}}}catch(u){}}();/* ]]&gt; */&lt;/script&gt;\nFormat settings, CABAC : No\nFormat settings, ReFrames : 1 frame\nCodec ID : avc1\nCodec ID/Info : Advanced Video Coding\nDuration : 1h 37mn\nBit rate mode : Variable\nBit rate : 1 492 Kbps\nWidth : 688 pixels\nHeight : 288 pixels\nDisplay aspect ratio : 2.35:1\nFrame rate mode : Constant\nFrame rate : 25.000 fps\nResolution : 24 bits\nColorimetry : 4:2:0\nScan type : Progressive\nBits/(Pixel*Frame) : 0.301\nStream size : 1.02 GiB (82%)\n...............................................\nAudio\nID : 2\nFormat : AAC\nFormat/Info : Advanced Audio Codec\nFormat version : Version 4\nFormat profile : LC\nFormat settings, SBR : No\nCodec ID : 40\nDuration : 1h 37mn\nBit rate mode : Variable\nBit rate : 314 Kbps\nChannel(s) : 6 channels\nChannel positions : Front: L C R, Rear: L R, LFE\nSampling rate : 48.0 KHz\nResolution : 16 bits\nStream size : 219 MiB (17%)\n.................................................\nPlot:\nSet during the time of the first outbreak of bubonic plague in England, a young monk is tasked with learning the truth about reports of people being brought back to life in a small village\n...................................................\nScreenshots:\n &lt;a href=&quot;\nhttp://www.starshare.ro/bitbucket/Black.Death.2010.DVDRip.H264.FEEL-FREE.mp4_thumbs_%5B2010.08.04_15.02.37%5D.jpg&quot; rel=&quot;nofollow&quot; target=&quot;_NEW&quot;&gt;\nhttp://www.starshare.ro/bitbucket/Black.Death.2010.DVDRip.H264.FEEL-FREE.mp4_thumbs_%5B2010.08.04_15.02.37%5D.jpg&lt;/a&gt;\n &lt;a href=&quot;\nhttp://www.starshare.ro/bitbucket/Black.Death.2010.DVDRip.H264.FEEL-FREE.mp4_snapshot_00.28.18_%5B2010.08.04_15.03.06%5D.jpg&quot; rel=&quot;nofollow&quot; target=&quot;_NEW&quot;&gt;\nhttp://www.starshare.ro/bitbucket/Black.Death.2010.DVDRip.H264.FEEL-FREE.mp4_snapshot_00.28.18_%5B2010.08.04_15.03.06%5D.jpg&lt;/a&gt;\n &lt;a href=&quot;\nhttp://www.starshare.ro/bitbucket/Black.Death.2010.DVDRip.H264.FEEL-FREE.mp4_snapshot_00.38.34_%5B2010.08.04_15.02.48%5D.jpg&quot; rel=&quot;nofollow&quot; target=&quot;_NEW&quot;&gt;\nhttp://www.starshare.ro/bitbucket/Black.Death.2010.DVDRip.H264.FEEL-FREE.mp4_snapshot_00.38.34_%5B2010.08.04_15.02.48%5D.jpg&lt;/a&gt;\n &lt;a href=&quot;\nhttp://www.starshare.ro/bitbucket/Black.Death.2010.DVDRip.H264.FEEL-FREE.mp4_snapshot_01.06.44_%5B2010.08.04_15.02.54%5D.jpg&quot; rel=&quot;nofollow&quot; target=&quot;_NEW&quot;&gt;\nhttp://www.starshare.ro/bitbucket/Black.Death.2010.DVDRip.H264.FEEL-FREE.mp4_snapshot_01.06.44_%5B2010.08.04_15.02.54%5D.jpg&lt;/a&gt;\n &lt;a href=&quot;\nhttp://www.starshare.ro/bitbucket/Black.Death.2010.DVDRip.H264.FEEL-FREE.mp4_snapshot_00.18.29_%5B2010.08.04_15.03.22%5D.jpg&quot; rel=&quot;nofollow&quot; target=&quot;_NEW&quot;&gt;\nhttp://www.starshare.ro/bitbucket/Black.Death.2010.DVDRip.H264.FEEL-FREE.mp4_snapshot_00.18.29_%5B2010.08.04_15.03.22%5D.jpg&lt;/a&gt;","torrent":{"xt":"urn:btih:7b1e40bacd2d4be3885cc9a8a486b291765842a7","amp;dn":"Black.Death.2010.DVDRip.H264.FEEL-FREE","amp;tr":["udp%3A%2F%2Ftracker.openbittorrent.com%3A80","udp%3A%2F%2Fopen.demonii.com%3A1337","udp%3A%2F%2Ftracker.coppersurfer.tk%3A6969","udp%3A%2F%2Fexodus.desync.com%3A6969"],"infoHash":"7b1e40bacd2d4be3885cc9a8a486b291765842a7","infoHashBuffer":{"type":"Buffer","data":[123,30,64,186,205,45,75,227,136,92,201,168,164,134,178,145,118,88,66,167]},"announce":[],"urlList":[]}}